# xmcd CD database file
#
# Track frame offsets:
#	150
#	2530
#	31199
#	79441
#	116046
#	145973
#	191151
#	211723
#	253586
#	294293
#
# Disc length: 4437 seconds
#
# Revision: 0
# Processed by: cddbd v1.5.2PL0 Copyright (c) Steve Scherf et al.
# Submitted via: CDex 1.51
#
DISCID=8711530a
DTITLE=Dolores Ashcroft Nowicki - Your Unseen Power - 05 - Pathworking and the Tree of Life
DYEAR=2006
DGENRE=New Age
TTITLE0=Introduction
TTITLE1=The art of Pathworking
TTITLE2=Dreams and the impressionable universe
TTITLE3=Mandala of the Tree of Life
TTITLE4=The Spheres of the Tree
TTITLE5=Symbols and correspondences
TTITLE6=The God Names
TTITLE7=Paths of the Tree - 32 through 30
TTITLE8=Paths of the Tree - 29 through 26
TTITLE9=Paths of the Tree - 25 and 24
EXTD=YEAR: 2006
EXTT0=
EXTT1=
EXTT2=
EXTT3=
EXTT4=
EXTT5=
EXTT6=
EXTT7=
EXTT8=
EXTT9=
PLAYORDER=
